<svg width="16" height="16" viewBox="0 0 16 16" fill="none" xmlns="http://www.w3.org/2000/svg">
<rect width="16" height="16" fill="black"/>
<path d="M5.85795 6.54545C5.81534 6.18561 5.64252 5.90625 5.33949 5.70739C5.03646 5.50852 4.66477 5.40909 4.22443 5.40909C3.90246 5.40909 3.62074 5.46117 3.37926 5.56534C3.14015 5.66951 2.95313 5.81274 2.81818 5.99503C2.68561 6.17732 2.61932 6.38447 2.61932 6.61648C2.61932 6.81061 2.66548 6.97751 2.75781 7.11719C2.85251 7.2545 2.97325 7.36932 3.12003 7.46165C3.26681 7.55161 3.42069 7.62618 3.58168 7.68537C3.74266 7.74219 3.89062 7.78835 4.02557 7.82386L4.7642 8.02273C4.9536 8.07244 5.1643 8.1411 5.39631 8.22869C5.63068 8.31629 5.8544 8.43584 6.06747 8.58736C6.28291 8.73651 6.46046 8.92827 6.60014 9.16264C6.73982 9.39702 6.80966 9.68466 6.80966 10.0256C6.80966 10.4186 6.70668 10.7737 6.50071 11.0909C6.29711 11.4081 5.99882 11.6603 5.60582 11.8473C5.2152 12.0343 4.74053 12.1278 4.18182 12.1278C3.66098 12.1278 3.20999 12.0438 2.82884 11.8757C2.45005 11.7076 2.15175 11.4732 1.93395 11.1726C1.71851 10.8719 1.59659 10.5227 1.56818 10.125H2.47727C2.50095 10.3996 2.59328 10.6269 2.75426 10.8068C2.91761 10.9844 3.12358 11.117 3.37216 11.2045C3.62311 11.2898 3.89299 11.3324 4.18182 11.3324C4.51799 11.3324 4.81984 11.2779 5.08736 11.169C5.35488 11.0578 5.56676 10.9039 5.72301 10.7074C5.87926 10.5085 5.95739 10.2765 5.95739 10.0114C5.95739 9.76989 5.88991 9.57339 5.75497 9.42188C5.62003 9.27036 5.44247 9.14725 5.2223 9.05256C5.00213 8.95786 4.7642 8.875 4.50852 8.80398L3.61364 8.5483C3.04545 8.38494 2.59564 8.15175 2.2642 7.84872C1.93277 7.54569 1.76705 7.14915 1.76705 6.65909C1.76705 6.25189 1.87713 5.89678 2.0973 5.59375C2.31984 5.28835 2.61813 5.05161 2.99219 4.88352C3.36861 4.71307 3.78883 4.62784 4.25284 4.62784C4.72159 4.62784 5.13826 4.71188 5.50284 4.87997C5.86742 5.04569 6.15625 5.27296 6.36932 5.56179C6.58475 5.85062 6.69839 6.1785 6.71023 6.54545H5.85795ZM8.25763 12V4.72727H10.8002C11.3069 4.72727 11.7247 4.81487 12.0538 4.99006C12.3829 5.16288 12.6279 5.39607 12.7889 5.68963C12.9499 5.98082 13.0304 6.30398 13.0304 6.65909C13.0304 6.97159 12.9747 7.22964 12.8635 7.43324C12.7546 7.63684 12.6101 7.79782 12.4302 7.91619C12.2527 8.03456 12.0597 8.12216 11.8514 8.17898V8.25C12.0739 8.2642 12.2976 8.34233 12.5225 8.48438C12.7475 8.62642 12.9357 8.83002 13.0872 9.09517C13.2387 9.36032 13.3145 9.68466 13.3145 10.0682C13.3145 10.4328 13.2316 10.7607 13.0659 11.0518C12.9002 11.343 12.6386 11.5739 12.2811 11.7443C11.9236 11.9148 11.4584 12 10.8855 12H8.25763ZM9.13832 11.2188H10.8855C11.4608 11.2188 11.8691 11.1075 12.1106 10.8849C12.3545 10.66 12.4764 10.3878 12.4764 10.0682C12.4764 9.82197 12.4136 9.5947 12.2882 9.38636C12.1627 9.17566 11.984 9.00758 11.752 8.8821C11.5199 8.75426 11.2453 8.69034 10.9281 8.69034H9.13832V11.2188ZM9.13832 7.9233H10.7718C11.037 7.9233 11.2761 7.87121 11.4892 7.76705C11.7046 7.66288 11.8751 7.5161 12.0005 7.3267C12.1284 7.13731 12.1923 6.91477 12.1923 6.65909C12.1923 6.33949 12.081 6.06842 11.8585 5.84588C11.6359 5.62098 11.2832 5.50852 10.8002 5.50852H9.13832V7.9233Z" fill="white"/>
</svg>
